<svg xmlns="http://www.w3.org/2000/svg" version="1.1" xmlns:xlink="http://www.w3.org/1999/xlink" viewBox="0 0 200 200"><rect width="200" height="200" fill="url('#gradient')"></rect><defs><linearGradient id="gradient" gradientTransform="rotate(193 0.5 0.5)"><stop offset="0%" stop-color="#c5a367"></stop><stop offset="100%" stop-color="#cab4a1"></stop></linearGradient></defs><g><g fill="#435d4e" transform="matrix(4.72295995945261,0,0,4.72295995945261,9.131974531316658,133.57962080877684)" stroke="#699871" stroke-width="2"><path d="M9.98 0L9.15-2.66L4.45-2.66L3.63 0L-0.03 0L5.19-14.22L8.41-14.22L13.66 0L9.98 0ZM6.80-10.23L5.27-5.30L8.33-5.30L6.80-10.23ZM22.56 0L19.53-5.29L18.13-3.75L18.13 0L14.70 0L14.70-14.22L18.13-14.22L18.13-7.95L19.32-9.76L22.38-14.22L26.62-14.22L21.82-7.93L26.62 0L22.56 0ZM33.26 0L27.49 0L27.49-14.22L32.60-14.22Q35.34-14.22 36.77-13.21Q38.20-12.21 38.20-10.29L38.20-10.29Q38.20-9.19 37.70-8.41Q37.19-7.63 36.20-7.26L36.20-7.26Q37.31-6.96 37.91-6.16Q38.51-5.36 38.51-4.21L38.51-4.21Q38.51-2.12 37.18-1.07Q35.86-0.02 33.26 0L33.26 0ZM33.32-6.04L30.92-6.04L30.92-2.64L33.16-2.64Q34.09-2.64 34.59-3.06Q35.09-3.49 35.09-4.26L35.09-4.26Q35.09-6.04 33.32-6.04L33.32-6.04ZM30.92-11.57L30.92-8.29L32.71-8.29Q33.83-8.30 34.31-8.70Q34.79-9.10 34.79-9.88L34.79-9.88Q34.79-10.78 34.27-11.18Q33.75-11.57 32.60-11.57L32.60-11.57L30.92-11.57Z"></path></g></g></svg>